<?xml version="1.0" encoding="UTF-8" standalone="no"?>
<!DOCTYPE svg PUBLIC "-//W3C//DTD SVG 1.1//EN" "http://www.w3.org/Graphics/SVG/1.1/DTD/svg11.dtd">
<svg width="100%" height="100%" viewBox="0 0 2048 2048" version="1.1" xmlns="http://www.w3.org/2000/svg" xmlns:xlink="http://www.w3.org/1999/xlink" xml:space="preserve" xmlns:serif="http://www.serif.com/" style="fill-rule:evenodd;clip-rule:evenodd;stroke-linejoin:round;stroke-miterlimit:2;">
    <g transform="matrix(1,0,0,1,-20.6677,537.893)">
        <path d="M1326.84,253.938C1326.84,240.677 1321.57,227.959 1312.19,218.582C1302.82,209.205 1290.1,203.937 1276.84,203.937L248.159,203.937C234.898,203.937 222.18,209.205 212.804,218.582C203.427,227.959 198.159,240.677 198.159,253.938L198.159,1282.62C198.159,1295.88 203.427,1308.59 212.804,1317.97C222.18,1327.35 234.898,1332.62 248.159,1332.62L1276.84,1332.62C1290.1,1332.62 1302.82,1327.35 1312.19,1317.97C1321.57,1308.59 1326.84,1295.88 1326.84,1282.62L1326.84,253.938Z" style="fill:rgb(235,235,235);"/>
    </g>
    <path d="M741.83,501.322C741.83,528.936 764.216,551.322 791.83,551.322C927.731,551.322 1302.78,551.322 1438.68,551.322C1466.29,551.322 1488.68,573.707 1488.68,601.322C1488.68,727.769 1488.68,1059.21 1488.68,1185.66C1488.68,1198.92 1493.95,1211.64 1503.32,1221.02C1512.7,1230.39 1525.42,1235.66 1538.68,1235.66L1820.51,1235.66C1833.77,1235.66 1846.49,1230.39 1855.86,1221.02C1865.24,1211.64 1870.51,1198.92 1870.51,1185.66C1870.51,998.945 1870.51,343.699 1870.51,156.982C1870.51,143.722 1865.24,131.004 1855.86,121.627C1846.49,112.25 1833.77,106.982 1820.51,106.982L791.83,106.982C778.57,106.982 765.852,112.25 756.475,121.627C747.098,131.004 741.83,143.722 741.83,156.982C741.83,242.485 741.83,415.819 741.83,501.322Z" style="fill:rgb(235,235,235);"/>
</svg>
