<?xml version="1.0" encoding="UTF-8" standalone="no"?>
<!DOCTYPE svg PUBLIC "-//W3C//DTD SVG 1.1//EN" "http://www.w3.org/Graphics/SVG/1.1/DTD/svg11.dtd">
<svg width="100%" height="100%" viewBox="0 0 2048 2048" version="1.1" xmlns="http://www.w3.org/2000/svg" xmlns:xlink="http://www.w3.org/1999/xlink" xml:space="preserve" xmlns:serif="http://www.serif.com/" style="fill-rule:evenodd;clip-rule:evenodd;stroke-linejoin:round;stroke-miterlimit:2;">
    <g transform="matrix(5.07027,0,0,5.07027,-885.701,-4615.4)">
        <g transform="matrix(1.20273,0,0,1.20273,-1121.19,58.7231)">
            <path d="M1154.84,813.923C1154.84,813.612 1154.95,813.31 1155.16,813.073C1160.58,806.705 1234.77,719.629 1244.27,708.485C1244.52,708.193 1244.88,708.024 1245.26,708.024C1245.65,708.024 1246.01,708.192 1246.26,708.484C1255.77,719.623 1330.13,806.702 1335.57,813.072C1335.77,813.31 1335.88,813.612 1335.88,813.924C1335.88,821.655 1335.88,919.526 1335.88,926.991C1335.88,927.283 1335.78,927.567 1335.6,927.797C1330.49,934.371 1255.99,1030.08 1246.3,1042.53C1246.05,1042.85 1245.67,1043.04 1245.27,1043.04C1244.86,1043.04 1244.48,1042.85 1244.23,1042.53C1234.56,1030.08 1160.22,934.368 1155.12,927.797C1154.94,927.567 1154.84,927.284 1154.84,926.992L1154.84,813.923Z" style="fill:url(#_Linear1);"/>
        </g>
        <g transform="matrix(-1,0,0,1,1622.01,236.233)">
            <path d="M1246.94,813.44C1246.07,813.44 1245.36,812.735 1245.36,811.864C1245.35,800.403 1245.29,729.811 1245.27,711.598C1245.27,710.937 1245.68,710.346 1246.3,710.117C1246.92,709.888 1247.62,710.069 1248.05,710.572C1261.69,726.549 1321.36,796.434 1333.66,810.838C1334.06,811.306 1334.15,811.964 1333.89,812.523C1333.63,813.082 1333.07,813.44 1332.46,813.44L1246.94,813.44Z" style="fill:url(#_Linear2);"/>
        </g>
    </g>
    <defs>
        <linearGradient id="_Linear1" x1="0" y1="0" x2="1" y2="0" gradientUnits="userSpaceOnUse" gradientTransform="matrix(-0.156197,-328.765,328.765,-0.156197,1245.43,1039.68)"><stop offset="0" style="stop-color:rgb(255,144,0);stop-opacity:1"/><stop offset="1" style="stop-color:rgb(206,3,117);stop-opacity:1"/></linearGradient>
        <linearGradient id="_Linear2" x1="0" y1="0" x2="1" y2="0" gradientUnits="userSpaceOnUse" gradientTransform="matrix(0.0972991,-336.548,336.548,0.0972991,1245.26,1043.86)"><stop offset="0" style="stop-color:rgb(255,234,0);stop-opacity:1"/><stop offset="1" style="stop-color:rgb(255,125,0);stop-opacity:1"/></linearGradient>
    </defs>
</svg>
